<svg width="207" height="146" viewBox="0 0 207 146" fill="none" xmlns="http://www.w3.org/2000/svg">
  <!-- Background decorative elements -->
  <circle cx="180" cy="120" r="40" fill="white" opacity="0.1"/>
  <circle cx="160" cy="100" r="25" fill="white" opacity="0.15"/>
  
  <!-- Comparison cards -->
  <g transform="translate(40, 30)">
    <!-- Card 1 -->
    <rect x="0" y="20" width="45" height="60" rx="6" fill="white" opacity="0.9"/>
    <rect x="5" y="25" width="35" height="3" rx="1.5" fill="#1DC37D"/>
    <rect x="5" y="32" width="25" height="2" rx="1" fill="#1DC37D" opacity="0.5"/>
    <rect x="5" y="38" width="30" height="2" rx="1" fill="#1DC37D" opacity="0.5"/>
    <rect x="5" y="44" width="20" height="2" rx="1" fill="#1DC37D" opacity="0.5"/>
    <circle cx="22.5" cy="60" r="8" fill="#1DC37D" opacity="0.3"/>
    <text x="22.5" y="64" font-family="Arial" font-size="10" font-weight="bold" text-anchor="middle" fill="#1DC37D">%</text>
    
    <!-- Card 2 -->
    <rect x="55" y="10" width="45" height="60" rx="6" fill="white"/>
    <rect x="60" y="15" width="35" height="3" rx="1.5" fill="#1DC37D"/>
    <rect x="60" y="22" width="25" height="2" rx="1" fill="#1DC37D" opacity="0.5"/>
    <rect x="60" y="28" width="30" height="2" rx="1" fill="#1DC37D" opacity="0.5"/>
    <rect x="60" y="34" width="20" height="2" rx="1" fill="#1DC37D" opacity="0.5"/>
    <circle cx="77.5" cy="50" r="8" fill="#FFD700"/>
    <text x="77.5" y="54" font-family="Arial" font-size="10" font-weight="bold" text-anchor="middle" fill="white">★</text>
    
    <!-- Card 3 -->
    <rect x="110" y="15" width="45" height="60" rx="6" fill="white" opacity="0.8"/>
    <rect x="115" y="20" width="35" height="3" rx="1.5" fill="#1DC37D"/>
    <rect x="115" y="27" width="25" height="2" rx="1" fill="#1DC37D" opacity="0.5"/>
    <rect x="115" y="33" width="30" height="2" rx="1" fill="#1DC37D" opacity="0.5"/>
    <rect x="115" y="39" width="20" height="2" rx="1" fill="#1DC37D" opacity="0.5"/>
    <circle cx="132.5" cy="55" r="8" fill="#1DC37D" opacity="0.3"/>
    <text x="132.5" y="59" font-family="Arial" font-size="10" font-weight="bold" text-anchor="middle" fill="#1DC37D">$</text>
  </g>
  
  <!-- Comparison arrows -->
  <path d="M85 70 L85 85" stroke="white" stroke-width="2" opacity="0.6"/>
  <path d="M140 75 L140 90" stroke="white" stroke-width="2" opacity="0.6"/>
  
  <!-- Check mark -->
  <circle cx="112" cy="95" r="12" fill="white" opacity="0.2"/>
  <path d="M106 95 L110 99 L118 91" stroke="white" stroke-width="3" stroke-linecap="round" stroke-linejoin="round"/>
</svg>