<svg xmlns="http://www.w3.org/2000/svg" viewBox="0 0 1024 1024" fill="none">
  <defs>
    <linearGradient id="bellGradient" x1="0%" y1="0%" x2="100%" y2="100%">
      <stop offset="0%" style="stop-color:#667EEA;stop-opacity:1" />
      <stop offset="50%" style="stop-color:#764BA2;stop-opacity:1" />
      <stop offset="100%" style="stop-color:#F093FB;stop-opacity:1" />
    </linearGradient>
  </defs>

  <!-- Background Circle -->
  <circle cx="512" cy="512" r="512" fill="url(#bellGradient)"/>

  <!-- Bell Body -->
  <path d="M512 192 C422.4 192 352 262.4 352 352 C352 464 313.6 512 297.6 588.8 C294.4 598.4 300.8 608 310.4 608 L713.6 608 C723.2 608 729.6 598.4 726.4 588.8 C710.4 512 672 464 672 352 C672 262.4 601.6 192 512 192 Z"
        fill="white"
        stroke="white"
        stroke-width="48"
        stroke-linecap="round"
        stroke-linejoin="round"/>

  <!-- Bell Clapper (bottom) -->
  <path d="M448 704 C448 736 476.8 768 512 768 C547.2 768 576 736 576 704"
        stroke="white"
        stroke-width="48"
        stroke-linecap="round"
        stroke-linejoin="round"
        fill="none"/>
</svg>
