<svg width="8528" height="1824" viewBox="0 0 8528 1824" fill="none" xmlns="http://www.w3.org/2000/svg">
<path d="M267.741 266.853C281.087 253.551 294.705 240.792 308.869 228.304V1595.15C119.571 1428.2 0 1183.87 0 911.863C0 660.211 102.411 432.177 267.741 266.853Z" fill="#FF6021"/>
<path d="M707.621 1128.23L1320.18 1729.8C1198.16 1790.07 1060.34 1824 914.895 1824C732.679 1824 563.264 1770.79 420.814 1679.58C584.781 1651.07 707.621 1529.73 707.621 1384.76V1128.23Z" fill="#FF6021"/>
<path d="M1327.26 97.4573L707.62 705.548V23.3463C774.351 8.14407 843.805 0 914.894 0C1063.34 0 1203.06 35.2909 1326.99 97.4573H1327.26Z" fill="#FF6021"/>
<path d="M1829.79 911.863C1829.79 1126.87 1755.16 1324.5 1629.87 1480.59L1027.11 902.633L1618.15 328.476C1750.53 486.742 1830.06 690.072 1830.06 912.134L1829.79 911.863Z" fill="#FF6021"/>
<path d="M2590.79 1375.53L2376.16 1107.05V1249.84C2376.16 1364.94 2282.74 1458.06 2167.25 1458.06V565.738C2167.25 450.635 2260.68 357.521 2376.16 357.521V983.8L2587.8 717.218C2629.47 664.824 2692.93 634.148 2760.21 634.148H2925.54L2561.38 1047.6L2928.53 1458.06H2762.93C2695.93 1458.06 2632.74 1427.65 2591.06 1375.53H2590.79Z" fill="#052320"/>
<path d="M3352.88 659.394C3396.19 634.69 3445.49 622.203 3501.33 622.203V841.006H3446.03C3380.39 841.006 3330.82 856.48 3297.59 887.156C3264.09 917.832 3247.48 971.583 3247.48 1047.87V1346.21C3247.48 1408.1 3197.09 1458.6 3134.71 1458.6H3038.57V835.034C3038.57 724.003 3128.72 634.147 3240.12 634.147H3247.48V762.009C3274.44 718.303 3309.3 684.098 3352.61 659.394H3352.88Z" fill="#052320"/>
<path d="M4404.23 1108.68H3799.84C3804.75 1168.13 3825.72 1214.82 3862.49 1248.48C3899.26 1282.14 3944.47 1298.98 3998.4 1298.98C4047.16 1298.98 4087.2 1285.94 4118.25 1259.61C4162.64 1222.15 4217.66 1199.35 4275.95 1199.35H4389.25C4365.29 1278.62 4319.53 1343.77 4251.98 1394.8C4184.43 1445.84 4101.36 1471.36 4002.76 1471.36C3923.23 1471.36 3851.87 1453.71 3788.68 1418.69C3725.49 1383.4 3676.19 1333.72 3641.05 1269.11C3605.64 1204.78 3587.94 1130.39 3587.94 1045.97C3587.94 961.539 3605.37 885.8 3640.23 821.462C3675.1 757.124 3723.85 707.445 3786.5 672.697C3849.14 637.949 3921.32 620.575 4003.03 620.575C4084.74 620.575 4152.02 637.406 4214.12 671.068C4276.22 704.73 4324.43 752.78 4359.02 814.675C4393.34 876.57 4410.5 947.695 4410.5 1028.05C4410.5 1057.91 4408.59 1084.51 4404.51 1108.4L4404.23 1108.68ZM4193.69 968.869C4192.6 915.39 4173.26 872.498 4135.4 840.193C4097.55 807.888 4051.24 791.872 3996.5 791.872C3944.75 791.872 3901.17 807.617 3866.03 838.836C3830.62 870.055 3809.1 913.49 3801.21 968.869H4193.69Z" fill="#052320"/>
<path d="M4558.67 821.462C4591.9 757.124 4637.66 707.445 4695.13 672.697C4752.87 637.949 4816.88 620.575 4887.7 620.575C4941.35 620.575 4992.56 632.248 5041.31 655.595C5090.07 678.941 5128.74 709.889 5157.62 748.437V568.453C5157.62 451.722 5252.4 357.25 5369.52 357.25V1458.06H5157.62V1336.17C5131.74 1376.89 5095.51 1409.46 5048.67 1434.44C5001.82 1459.14 4947.62 1471.63 4886.06 1471.63C4816.33 1471.63 4752.87 1453.71 4695.13 1418.15C4637.39 1382.32 4591.9 1332.1 4558.67 1267.21C4525.44 1202.33 4508.56 1127.68 4508.56 1043.25C4508.56 958.825 4525.17 886.072 4558.67 821.734V821.462ZM5129.56 915.933C5109.68 879.828 5082.71 851.867 5048.94 832.592C5015.17 813.318 4978.67 803.545 4939.99 803.545C4901.31 803.545 4865.36 813.047 4832.68 831.778C4799.72 850.509 4773.3 878.199 4752.87 914.305C4732.44 950.41 4722.37 993.302 4722.37 1042.98C4722.37 1092.66 4732.44 1135.82 4752.87 1173.01C4773.3 1210.21 4799.99 1238.71 4833.49 1258.53C4866.72 1278.34 4902.4 1288.39 4940.26 1288.39C4978.12 1288.39 5015.44 1278.62 5049.21 1259.34C5082.99 1240.07 5109.95 1212.38 5129.83 1176C5149.72 1139.9 5159.79 1096.46 5159.79 1045.7C5159.79 994.931 5149.72 951.767 5129.83 915.662L5129.56 915.933Z" fill="#052320"/>
<path d="M5783.25 634.149V1249.84C5783.25 1364.94 5689.83 1458.06 5574.34 1458.06V842.366C5574.34 727.263 5667.77 634.149 5783.25 634.149Z" fill="#052320"/>
<path d="M6232.39 805.174V1203.69C6232.39 1231.38 6239.2 1251.47 6252.54 1263.96C6265.89 1276.44 6288.5 1282.69 6320.36 1282.69C6374.02 1282.69 6417.33 1325.85 6417.33 1379.33V1458.06H6286.05C6109.82 1458.06 6021.85 1372.82 6021.85 1202.33V805.174H5849.98V794.587C5849.98 706.088 5922.16 634.149 6010.95 634.149H6021.85V567.096C6021.85 451.179 6116.09 357.25 6232.39 357.25V633.877H6417.33C6417.33 728.348 6340.52 804.903 6245.74 804.903H6232.39V805.174Z" fill="#052320"/>
<path d="M6952.54 821.462C6985.77 757.124 7030.98 707.445 7088.45 672.697C7145.65 637.949 7209.66 620.575 7280.2 620.575C7341.76 620.575 7395.96 633.062 7442.26 657.766C7488.57 682.47 7525.61 713.689 7553.39 751.423C7553.39 686.542 7606.23 633.877 7671.33 633.877H7763.93V1248.21C7763.93 1364.13 7669.69 1458.06 7553.39 1458.06V1337.52C7526.43 1376.07 7489.38 1408.11 7442.26 1433.35C7394.87 1458.6 7340.4 1471.36 7278.84 1471.36C7209.11 1471.36 7145.65 1453.44 7088.45 1417.88C7031.26 1382.04 6986.04 1331.82 6952.54 1266.94C6919.31 1202.06 6902.42 1127.41 6902.42 1042.98C6902.42 958.553 6919.04 885.8 6952.54 821.462ZM7523.43 915.933C7503.55 879.827 7476.58 851.866 7442.81 832.592C7409.03 813.318 7372.54 803.545 7333.86 803.545C7295.18 803.545 7259.23 813.046 7226.55 831.777C7193.59 850.509 7167.17 878.199 7146.74 914.304C7126.31 950.409 7116.23 993.301 7116.23 1042.98C7116.23 1092.66 7126.31 1135.82 7146.74 1173.01C7167.17 1210.2 7193.86 1238.71 7227.36 1258.53C7260.59 1278.34 7296.27 1288.39 7334.13 1288.39C7371.99 1288.39 7409.31 1278.62 7443.08 1259.34C7476.85 1240.07 7503.82 1212.38 7523.7 1176C7543.59 1139.89 7553.66 1096.46 7553.66 1045.69C7553.66 994.93 7543.59 951.767 7523.7 915.661L7523.43 915.933Z" fill="#052320"/>
<path d="M8159.14 1287.03H8527.66C8527.66 1381.5 8450.85 1458.06 8356.07 1458.06H7921.91V1290.02L8283.07 805.174H7923.27C7923.27 710.703 8000.08 634.149 8094.86 634.149H8523.3V802.188L8159.14 1287.03Z" fill="#052320"/>
<path d="M5815.93 293.457V371.911C5815.93 461.767 5742.94 534.521 5652.78 534.521H5574.07V459.053C5574.07 367.568 5648.43 293.457 5740.22 293.457H5815.93Z" fill="#FF6021"/>
<path d="M6835.15 1250.66V1329.11C6835.15 1418.97 6762.15 1491.72 6672 1491.72H6593.28V1416.25C6593.28 1324.77 6667.64 1250.66 6759.43 1250.66H6835.15Z" fill="#052320"/>
</svg>
