<svg width="376" height="97" viewBox="0 0 376 97" fill="none" xmlns="http://www.w3.org/2000/svg">
<g clip-path="url(#clip0_3418_2356)">
<path d="M136.96 62.8438L129.08 52.9538V58.2137C129.08 62.4537 125.65 65.8837 121.41 65.8837V33.0137C121.41 28.7737 124.84 25.3438 129.08 25.3438V48.4137L136.85 38.5938C138.38 36.6638 140.71 35.5337 143.18 35.5337H149.25L135.88 50.7637L149.36 65.8837H143.28C140.82 65.8837 138.5 64.7637 136.97 62.8438H136.96Z" fill="#052320"/>
<path d="M164.94 36.4637C166.53 35.5537 168.34 35.0938 170.39 35.0938V43.1538H168.36C165.95 43.1538 164.13 43.7237 162.91 44.8537C161.68 45.9837 161.07 47.9638 161.07 50.7738V61.7637C161.07 64.0437 159.22 65.9038 156.93 65.9038H153.4V42.9538C153.4 38.8638 156.71 35.5537 160.8 35.5537H161.07V40.2637C162.06 38.6537 163.34 37.3937 164.93 36.4837L164.94 36.4637Z" fill="#052320"/>
<path d="M203.54 53.0034H181.35C181.53 55.1934 182.3 56.9134 183.65 58.1534C185 59.3934 186.66 60.0134 188.64 60.0134C190.43 60.0134 191.9 59.5334 193.04 58.5634C194.67 57.1834 196.69 56.3434 198.83 56.3434H202.99C202.11 59.2634 200.43 61.6634 197.95 63.5434C195.47 65.4234 192.42 66.3634 188.8 66.3634C185.88 66.3634 183.26 65.7134 180.94 64.4234C178.62 63.1234 176.81 61.2934 175.52 58.9134C174.22 56.5434 173.57 53.8034 173.57 50.6934C173.57 47.5834 174.21 44.7934 175.49 42.4234C176.77 40.0534 178.56 38.2234 180.86 36.9434C183.16 35.6634 185.81 35.0234 188.81 35.0234C191.81 35.0234 194.28 35.6434 196.56 36.8834C198.84 38.1234 200.61 39.8934 201.88 42.1734C203.14 44.4534 203.77 47.0734 203.77 50.0334C203.77 51.1334 203.7 52.1134 203.55 52.9934L203.54 53.0034ZM195.81 47.8534C195.77 45.8834 195.06 44.3034 193.67 43.1134C192.28 41.9234 190.58 41.3334 188.57 41.3334C186.67 41.3334 185.07 41.9134 183.78 43.0634C182.48 44.2134 181.69 45.8134 181.4 47.8534H195.81Z" fill="#052320"/>
<path d="M209.21 42.432C210.43 40.062 212.11 38.232 214.22 36.952C216.34 35.672 218.69 35.032 221.29 35.032C223.26 35.032 225.14 35.462 226.93 36.322C228.72 37.182 230.14 38.322 231.2 39.742V33.112C231.2 28.812 234.68 25.332 238.98 25.332V65.882H231.2V61.392C230.25 62.892 228.92 64.092 227.2 65.012C225.48 65.922 223.49 66.382 221.23 66.382C218.67 66.382 216.34 65.722 214.22 64.412C212.1 63.092 210.43 61.242 209.21 58.852C207.99 56.462 207.37 53.712 207.37 50.602C207.37 47.492 207.98 44.812 209.21 42.442V42.432ZM230.17 45.912C229.44 44.582 228.45 43.552 227.21 42.842C225.97 42.132 224.63 41.772 223.21 41.772C221.79 41.772 220.47 42.122 219.27 42.812C218.06 43.502 217.09 44.522 216.34 45.852C215.59 47.182 215.22 48.762 215.22 50.592C215.22 52.422 215.59 54.012 216.34 55.382C217.09 56.752 218.07 57.802 219.3 58.532C220.52 59.262 221.83 59.632 223.22 59.632C224.61 59.632 225.98 59.272 227.22 58.562C228.46 57.852 229.45 56.832 230.18 55.492C230.91 54.162 231.28 52.562 231.28 50.692C231.28 48.822 230.91 47.232 230.18 45.902L230.17 45.912Z" fill="#052320"/>
<path d="M254.17 35.5312V58.2113C254.17 62.4513 250.74 65.8812 246.5 65.8812V43.2013C246.5 38.9613 249.93 35.5312 254.17 35.5312Z" fill="#052320"/>
<path d="M270.66 41.832V56.512C270.66 57.532 270.91 58.272 271.4 58.732C271.89 59.192 272.72 59.422 273.89 59.422C275.86 59.422 277.45 61.012 277.45 62.982V65.882H272.63C266.16 65.882 262.93 62.742 262.93 56.462V41.832H256.62V41.442C256.62 38.182 259.27 35.532 262.53 35.532H262.93V33.062C262.93 28.792 266.39 25.332 270.66 25.332V35.522H277.45C277.45 39.002 274.63 41.822 271.15 41.822H270.66V41.832Z" fill="#052320"/>
<path d="M297.1 42.4313C298.32 40.0613 299.98 38.2313 302.09 36.9513C304.19 35.6713 306.54 35.0312 309.13 35.0312C311.39 35.0312 313.38 35.4913 315.08 36.4013C316.78 37.3113 318.14 38.4612 319.16 39.8512C319.16 37.4612 321.1 35.5213 323.49 35.5213H326.89V58.1513C326.89 62.4213 323.43 65.8812 319.16 65.8812V61.4412C318.17 62.8612 316.81 64.0413 315.08 64.9713C313.34 65.9013 311.34 66.3713 309.08 66.3713C306.52 66.3713 304.19 65.7113 302.09 64.4013C299.99 63.0813 298.33 61.2313 297.1 58.8413C295.88 56.4513 295.26 53.7013 295.26 50.5913C295.26 47.4813 295.87 44.8013 297.1 42.4313ZM318.06 45.9113C317.33 44.5813 316.34 43.5513 315.1 42.8413C313.86 42.1313 312.52 41.7713 311.1 41.7713C309.68 41.7713 308.36 42.1213 307.16 42.8113C305.95 43.5013 304.98 44.5212 304.23 45.8512C303.48 47.1812 303.11 48.7613 303.11 50.5913C303.11 52.4213 303.48 54.0113 304.23 55.3813C304.98 56.7513 305.96 57.8012 307.19 58.5312C308.41 59.2613 309.72 59.6313 311.11 59.6313C312.5 59.6313 313.87 59.2713 315.11 58.5613C316.35 57.8513 317.34 56.8313 318.07 55.4913C318.8 54.1613 319.17 52.5612 319.17 50.6912C319.17 48.8212 318.8 47.2313 318.07 45.9013L318.06 45.9113Z" fill="#052320"/>
<path d="M341.4 59.5813H354.93C354.93 63.0613 352.11 65.8812 348.63 65.8812H332.69V59.6912L345.95 41.8313H332.74C332.74 38.3513 335.56 35.5312 339.04 35.5312H354.77V41.7213L341.4 59.5813Z" fill="#052320"/>
<path d="M255.37 22.9805V25.8705C255.37 29.1805 252.69 31.8605 249.38 31.8605H246.49V29.0805C246.49 25.7105 249.22 22.9805 252.59 22.9805H255.37Z" fill="#052320"/>
<path d="M292.79 58.2422V61.1322C292.79 64.4422 290.11 67.1222 286.8 67.1222H283.91V64.3422C283.91 60.9722 286.64 58.2422 290.01 58.2422H292.79Z" fill="#052320"/>
<path d="M70.41 0H25.68C11.4973 0 0 11.4973 0 25.68V70.41C0 84.5927 11.4973 96.09 25.68 96.09H70.41C84.5927 96.09 96.09 84.5927 96.09 70.41V25.68C96.09 11.4973 84.5927 0 70.41 0Z" fill="url(#paint0_linear_3418_2356)"/>
<path d="M74.7203 16.3889V26.6789C74.7203 38.4789 65.1603 48.0389 53.3603 48.0389H43.0703V38.1289C43.0703 26.1189 52.8103 16.3789 64.8203 16.3789H74.7303L74.7203 16.3889Z" fill="white"/>
<path d="M43.0705 48.0491H53.3605C65.1605 48.0491 74.7205 57.6091 74.7205 69.4091V79.6991H64.8105C52.8005 79.6991 43.0605 69.9591 43.0605 57.9491V48.0391L43.0705 48.0491Z" fill="white"/>
<path d="M37.2001 16.3889V79.0089C28.4601 79.0089 21.3701 71.9189 21.3701 63.1789V32.2089C21.3701 23.4689 28.4601 16.3789 37.2001 16.3789V16.3889Z" fill="white"/>
<path d="M359.56 27.6992H365.27V28.7992H363.09L363.11 36.1392H361.72L361.74 28.7992H359.56V27.6992ZM375.78 27.6992V36.1492H374.51L374.49 29.6892L371.66 36.1492H370.65L367.84 29.6192V36.1492H366.59V27.6992H368.29L371.17 34.5192L374.15 27.6992H375.78Z" fill="black"/>
</g>
<defs>
<linearGradient id="paint0_linear_3418_2356" x1="66.64" y1="99.12" x2="29.46" y2="-3.03" gradientUnits="userSpaceOnUse">
<stop stop-color="#354AFF"/>
<stop offset="1" stop-color="#AF59E9"/>
</linearGradient>
<clipPath id="clip0_3418_2356">
<rect width="375.78" height="96.09" fill="white"/>
</clipPath>
</defs>
</svg>
