<svg width="200" height="400" viewBox="0 0 200 400" fill="none" xmlns="http://www.w3.org/2000/svg">
  <!-- Phone Frame -->
  <rect x="10" y="10" width="180" height="380" rx="20" fill="#1a1a1a"/>
  <rect x="15" y="15" width="170" height="370" rx="18" fill="#ffffff"/>
  
  <!-- Screen -->
  <rect x="20" y="40" width="160" height="320" rx="8" fill="#f8f9fa"/>
  
  <!-- Status Bar -->
  <rect x="20" y="40" width="160" height="25" fill="#ffffff"/>
  <circle cx="35" cy="52.5" r="3" fill="#000000" opacity="0.5"/>
  <circle cx="45" cy="52.5" r="3" fill="#000000" opacity="0.5"/>
  <circle cx="55" cy="52.5" r="3" fill="#000000" opacity="0.5"/>
  <rect x="150" y="49" width="20" height="7" rx="2" fill="#000000" opacity="0.3"/>
  
  <!-- App Header -->
  <rect x="20" y="65" width="160" height="60" fill="#10B981"/>
  <text x="100" y="95" font-family="Arial, sans-serif" font-size="18" font-weight="bold" text-anchor="middle" fill="white">task.az</text>
  <text x="100" y="115" font-family="Arial, sans-serif" font-size="12" text-anchor="middle" fill="white" opacity="0.9">Maliyyə həlləriniz</text>
  
  <!-- Content Cards -->
  <rect x="30" y="140" width="140" height="50" rx="8" fill="#ffffff" filter="url(#shadow)"/>
  <rect x="40" y="155" width="60" height="8" rx="4" fill="#e5e7eb"/>
  <rect x="40" y="168" width="100" height="6" rx="3" fill="#f3f4f6"/>
  
  <rect x="30" y="200" width="140" height="50" rx="8" fill="#ffffff" filter="url(#shadow)"/>
  <rect x="40" y="215" width="60" height="8" rx="4" fill="#e5e7eb"/>
  <rect x="40" y="228" width="100" height="6" rx="3" fill="#f3f4f6"/>
  
  <rect x="30" y="260" width="140" height="50" rx="8" fill="#ffffff" filter="url(#shadow)"/>
  <rect x="40" y="275" width="60" height="8" rx="4" fill="#e5e7eb"/>
  <rect x="40" y="288" width="100" height="6" rx="3" fill="#f3f4f6"/>
  
  <!-- Bottom Navigation -->
  <rect x="20" y="330" width="160" height="30" fill="#ffffff"/>
  <circle cx="50" cy="345" r="8" fill="#10B981"/>
  <circle cx="100" cy="345" r="8" fill="#e5e7eb"/>
  <circle cx="150" cy="345" r="8" fill="#e5e7eb"/>
  
  <!-- Home Button -->
  <circle cx="100" cy="375" r="8" fill="#000000" opacity="0.1"/>
  
  <defs>
    <filter id="shadow" x="0" y="0" width="200%" height="200%">
      <feDropShadow dx="0" dy="2" stdDeviation="3" flood-opacity="0.1"/>
    </filter>
  </defs>
</svg>