<svg width="400" height="300" viewBox="0 0 400 300" fill="none" xmlns="http://www.w3.org/2000/svg">
  <rect width="400" height="300" fill="#F3F4F6"/>
  <path d="M170 110C170 104.477 174.477 100 180 100H220C225.523 100 230 104.477 230 110V150C230 155.523 225.523 160 220 160H180C174.477 160 170 155.523 170 150V110Z" fill="#D1D5DB"/>
  <path d="M210 120L225 140H215L210 130L205 140H195L210 120Z" fill="#9CA3AF"/>
  <circle cx="190" cy="120" r="7" fill="#9CA3AF"/>
  <rect x="150" y="180" width="100" height="8" rx="4" fill="#D1D5DB"/>
  <rect x="130" y="195" width="140" height="6" rx="3" fill="#E5E7EB"/>
  <rect x="120" y="208" width="160" height="6" rx="3" fill="#E5E7EB"/>
</svg>