<svg width="207" height="146" viewBox="0 0 207 146" fill="none" xmlns="http://www.w3.org/2000/svg">
  <!-- Background decorative elements -->
  <circle cx="170" cy="110" r="35" fill="white" opacity="0.1"/>
  <circle cx="150" cy="90" r="20" fill="white" opacity="0.15"/>
  
  <!-- Laptop/Device -->
  <g transform="translate(50, 35)">
    <!-- Screen -->
    <rect x="10" y="10" width="80" height="50" rx="4" fill="white" opacity="0.95"/>
    <rect x="10" y="10" width="80" height="8" rx="4" fill="white"/>
    <circle cx="18" cy="14" r="1.5" fill="#0040FF" opacity="0.5"/>
    <circle cx="24" cy="14" r="1.5" fill="#0040FF" opacity="0.5"/>
    <circle cx="30" cy="14" r="1.5" fill="#0040FF" opacity="0.5"/>
    
    <!-- Form elements -->
    <rect x="20" y="24" width="60" height="4" rx="2" fill="#0040FF" opacity="0.3"/>
    <rect x="20" y="32" width="40" height="4" rx="2" fill="#0040FF" opacity="0.3"/>
    <rect x="20" y="40" width="50" height="4" rx="2" fill="#0040FF" opacity="0.3"/>
    <rect x="20" y="48" width="35" height="6" rx="3" fill="#0040FF" opacity="0.6"/>
    
    <!-- Keyboard base -->
    <path d="M5 60 L95 60 L90 65 L10 65 Z" fill="white" opacity="0.8"/>
  </g>
  
  <!-- Cursor/Hand clicking -->
  <g transform="translate(120, 70)">
    <path d="M0 0 L8 8 L4 8 L0 12 L-2 10 L2 6 L0 4 Z" fill="white"/>
  </g>
  
  <!-- Success checkmark in circle -->
  <g transform="translate(145, 45)">
    <circle cx="0" cy="0" r="15" fill="white" opacity="0.2"/>
    <circle cx="0" cy="0" r="12" fill="#4CAF50" opacity="0.8"/>
    <path d="M-6 0 L-2 4 L6 -4" stroke="white" stroke-width="2.5" stroke-linecap="round" stroke-linejoin="round"/>
  </g>
  
  <!-- Speed lines suggesting fast process -->
  <rect x="170" y="50" width="20" height="2" rx="1" fill="white" opacity="0.4"/>
  <rect x="175" y="56" width="15" height="2" rx="1" fill="white" opacity="0.3"/>
  <rect x="172" y="62" width="18" height="2" rx="1" fill="white" opacity="0.2"/>
</svg>