<svg width="400" height="300" viewBox="0 0 400 300" fill="none" xmlns="http://www.w3.org/2000/svg">
  <!-- Background gradient effect -->
  <defs>
    <linearGradient id="bgGradient" x1="0%" y1="0%" x2="100%" y2="100%">
      <stop offset="0%" style="stop-color:#667EEA;stop-opacity:0.1" />
      <stop offset="100%" style="stop-color:#764BA2;stop-opacity:0.1" />
    </linearGradient>
  </defs>
  
  <!-- Decorative circles -->
  <circle cx="350" cy="50" r="80" fill="url(#bgGradient)"/>
  <circle cx="50" cy="250" r="60" fill="url(#bgGradient)"/>
  
  <!-- Browser mockup -->
  <g transform="translate(180, 80)">
    <!-- Browser window -->
    <rect x="0" y="0" width="180" height="140" rx="8" fill="#ffffff" stroke="#E5E7EB" stroke-width="2"/>
    
    <!-- Browser header -->
    <rect x="0" y="0" width="180" height="25" rx="8" fill="#F3F4F6"/>
    <rect x="0" y="15" width="180" height="10" fill="#F3F4F6"/>
    
    <!-- Browser dots -->
    <circle cx="12" cy="12.5" r="3" fill="#EF4444"/>
    <circle cx="24" cy="12.5" r="3" fill="#FCD34D"/>
    <circle cx="36" cy="12.5" r="3" fill="#10B981"/>
    
    <!-- URL bar -->
    <rect x="50" y="8" width="120" height="9" rx="4" fill="#ffffff"/>
    
    <!-- Website content -->
    <rect x="15" y="35" width="150" height="8" rx="2" fill="#667EEA"/>
    <rect x="15" y="48" width="100" height="6" rx="2" fill="#E5E7EB"/>
    <rect x="15" y="58" width="120" height="6" rx="2" fill="#E5E7EB"/>
    
    <!-- Feature boxes -->
    <rect x="15" y="72" width="45" height="35" rx="4" fill="#10B981" opacity="0.2"/>
    <rect x="67.5" y="72" width="45" height="35" rx="4" fill="#667EEA" opacity="0.2"/>
    <rect x="120" y="72" width="45" height="35" rx="4" fill="#764BA2" opacity="0.2"/>
    
    <!-- CTA button -->
    <rect x="55" y="115" width="70" height="12" rx="6" fill="#667EEA"/>
  </g>
  
  <!-- Code editor mockup (smaller, in background) -->
  <g transform="translate(40, 120)" opacity="0.7">
    <rect x="0" y="0" width="120" height="90" rx="6" fill="#1F2937" stroke="#374151" stroke-width="1"/>
    
    <!-- Code lines -->
    <rect x="10" y="10" width="30" height="3" rx="1" fill="#10B981"/>
    <rect x="44" y="10" width="20" height="3" rx="1" fill="#667EEA"/>
    <rect x="15" y="18" width="40" height="3" rx="1" fill="#FCD34D"/>
    <rect x="58" y="18" width="25" height="3" rx="1" fill="#EF4444"/>
    <rect x="10" y="26" width="35" height="3" rx="1" fill="#10B981"/>
    <rect x="20" y="34" width="45" height="3" rx="1" fill="#667EEA"/>
    <rect x="15" y="42" width="30" height="3" rx="1" fill="#FCD34D"/>
    <rect x="10" y="50" width="50" height="3" rx="1" fill="#10B981"/>
    <rect x="64" y="50" width="20" height="3" rx="1" fill="#EF4444"/>
    <rect x="20" y="58" width="35" height="3" rx="1" fill="#667EEA"/>
    <rect x="10" y="66" width="40" height="3" rx="1" fill="#FCD34D"/>
    <rect x="15" y="74" width="25" height="3" rx="1" fill="#10B981"/>
  </g>
  
  <!-- Mobile mockup -->
  <g transform="translate(280, 140)">
    <rect x="0" y="0" width="70" height="120" rx="8" fill="#ffffff" stroke="#E5E7EB" stroke-width="2"/>
    
    <!-- Mobile screen -->
    <rect x="5" y="10" width="60" height="100" rx="4" fill="#F9FAFB"/>
    
    <!-- Mobile content -->
    <rect x="10" y="15" width="50" height="8" rx="2" fill="#667EEA"/>
    <rect x="10" y="27" width="35" height="5" rx="1" fill="#E5E7EB"/>
    <rect x="10" y="35" width="40" height="5" rx="1" fill="#E5E7EB"/>
    
    <!-- Mobile features -->
    <rect x="10" y="45" width="50" height="25" rx="3" fill="#10B981" opacity="0.2"/>
    <rect x="10" y="75" width="50" height="20" rx="3" fill="#667EEA" opacity="0.2"/>
    
    <!-- Home indicator -->
    <rect x="28" y="103" width="14" height="3" rx="1.5" fill="#CBD5E1"/>
  </g>
  
  <!-- Floating UI elements -->
  <g transform="translate(100, 50)">
    <!-- Settings icon -->
    <circle cx="0" cy="0" r="15" fill="#ffffff" stroke="#E5E7EB" stroke-width="1"/>
    <circle cx="0" cy="0" r="6" fill="none" stroke="#667EEA" stroke-width="2"/>
    <circle cx="0" cy="-9" r="2" fill="#667EEA"/>
    <circle cx="6.4" cy="6.4" r="2" fill="#667EEA"/>
    <circle cx="-6.4" cy="6.4" r="2" fill="#667EEA"/>
  </g>
  
  <!-- Cloud/hosting icon -->
  <g transform="translate(320, 40)">
    <path d="M0 10 C0 5 3 2 7 2 C8 0 10 -1 12 0 C14 0 15 1 15 3 C18 3 20 5 20 8 C20 11 18 13 15 13 L5 13 C2 13 0 11 0 8" fill="#ffffff" stroke="#10B981" stroke-width="1.5"/>
    <path d="M7 8 L10 8 M10 8 L10 5 M10 8 L10 11 M10 8 L13 8" stroke="#10B981" stroke-width="1.5" stroke-linecap="round"/>
  </g>
  
  <!-- Speed/performance lines -->
  <rect x="240" y="60" width="25" height="2" rx="1" fill="#667EEA" opacity="0.4"/>
  <rect x="245" y="66" width="20" height="2" rx="1" fill="#667EEA" opacity="0.3"/>
  <rect x="242" y="72" width="23" height="2" rx="1" fill="#667EEA" opacity="0.2"/>
</svg>