<svg preserveAspectRatio="none" width="100%" height="100%" overflow="visible" style="display: block;" viewBox="0 0 19 26" fill="none" xmlns="http://www.w3.org/2000/svg">
<g id="Group">
<g id="Vector">
</g>
<path id="Vector_2" d="M15.1667 0C16.0949 0 16.9852 0.368749 17.6415 1.02513C18.2979 1.6815 18.6667 2.57174 18.6667 3.5V19.8333C18.6667 20.7616 18.2979 21.6518 17.6415 22.3082C16.9852 22.9646 16.0949 23.3333 15.1667 23.3333H3.5C2.57174 23.3333 1.6815 22.9646 1.02513 22.3082C0.368749 21.6518 0 20.7616 0 19.8333V3.5C0 2.57174 0.368749 1.6815 1.02513 1.02513C1.6815 0.368749 2.57174 0 3.5 0H15.1667ZM16.3333 9.33333H2.33333V19.8333C2.33333 20.1428 2.45625 20.4395 2.67504 20.6583C2.89383 20.8771 3.19058 21 3.5 21H15.1667C15.4761 21 15.7728 20.8771 15.9916 20.6583C16.2104 20.4395 16.3333 20.1428 16.3333 19.8333V9.33333ZM9.33333 10.5C10.571 10.5 11.758 10.9917 12.6332 11.8668C13.5083 12.742 14 13.929 14 15.1667C14 16.4043 13.5083 17.5913 12.6332 18.4665C11.758 19.3417 10.571 19.8333 9.33333 19.8333C8.09566 19.8333 6.90867 19.3417 6.0335 18.4665C5.15833 17.5913 4.66667 16.4043 4.66667 15.1667C4.66667 13.929 5.15833 12.742 6.0335 11.8668C6.90867 10.9917 8.09566 10.5 9.33333 10.5ZM9.33333 12.8333C8.71449 12.8333 8.121 13.0792 7.68342 13.5168C7.24583 13.9543 7 14.5478 7 15.1667C7 15.7855 7.24583 16.379 7.68342 16.8166C8.121 17.2542 8.71449 17.5 9.33333 17.5C9.95217 17.5 10.5457 17.2542 10.9832 16.8166C11.4208 16.379 11.6667 15.7855 11.6667 15.1667C11.6667 14.5478 11.4208 13.9543 10.9832 13.5168C10.5457 13.0792 9.95217 12.8333 9.33333 12.8333ZM15.1667 2.33333H3.5C3.21424 2.33337 2.93844 2.43828 2.7249 2.62817C2.51136 2.81805 2.37493 3.07971 2.3415 3.3635L2.33333 3.5V7H16.3333V3.5C16.3333 3.19058 16.2104 2.89383 15.9916 2.67504C15.7728 2.45625 15.4761 2.33333 15.1667 2.33333ZM14 3.5C14.2974 3.50033 14.5834 3.61419 14.7996 3.81832C15.0158 4.02245 15.1459 4.30145 15.1634 4.59829C15.1808 4.89514 15.0842 5.18744 14.8934 5.41547C14.7025 5.6435 14.4318 5.79005 14.1365 5.82517L14 5.83333H12.8333C12.536 5.833 12.25 5.71914 12.0337 5.51501C11.8175 5.31088 11.6874 5.03189 11.67 4.73504C11.6525 4.43819 11.7491 4.14589 11.94 3.91786C12.1308 3.68983 12.4016 3.54329 12.6968 3.50817L12.8333 3.5H14ZM9.33333 3.5C9.64275 3.5 9.9395 3.62292 10.1583 3.84171C10.3771 4.0605 10.5 4.35725 10.5 4.66667C10.5 4.97609 10.3771 5.27283 10.1583 5.49162C9.9395 5.71042 9.64275 5.83333 9.33333 5.83333C9.02391 5.83333 8.72717 5.71042 8.50838 5.49162C8.28958 5.27283 8.16667 4.97609 8.16667 4.66667C8.16667 4.35725 8.28958 4.0605 8.50838 3.84171C8.72717 3.62292 9.02391 3.5 9.33333 3.5Z" fill="var(--fill-0, white)"/>
</g>
</svg>
