<svg preserveAspectRatio="none" width="100%" height="100%" overflow="visible" style="display: block;" viewBox="0 0 26 21" fill="none" xmlns="http://www.w3.org/2000/svg">
<path id="Vector" d="M23.3333 18.6667H25.6667V21H0V18.6667H2.33333V1.16667C2.33333 0.857247 2.45625 0.560501 2.67504 0.341709C2.89383 0.122916 3.19058 0 3.5 0H15.1667C15.4761 0 15.7728 0.122916 15.9916 0.341709C16.2104 0.560501 16.3333 0.857247 16.3333 1.16667V18.6667H21V9.33333H18.6667V7H22.1667C22.4761 7 22.7728 7.12292 22.9916 7.34171C23.2104 7.5605 23.3333 7.85725 23.3333 8.16667V18.6667ZM4.66667 2.33333V18.6667H14V2.33333H4.66667ZM7 9.33333H11.6667V11.6667H7V9.33333ZM7 4.66667H11.6667V7H7V4.66667Z" fill="var(--fill-0, white)"/>
</svg>
